<svg width="183" height="150" viewBox="0 0 183 150" fill="none" xmlns="http://www.w3.org/2000/svg">
<path d="M2.3999 2H22.7874C26.041 2 28.9118 4.13025 29.858 7.24673L61.7742 112.358C62.7204 115.474 65.5912 117.605 68.8446 117.605H140.755C144.136 117.605 147.087 115.307 147.919 112.026L160.794 61.2198C161.625 57.9382 164.576 55.6407 167.958 55.6407H180.683" stroke="black" stroke-width="3.75648" stroke-linecap="round"/>
<path d="M107.819 31.4826C106.737 30.3993 104.983 30.3993 103.9 31.4826L86.2641 49.1397C85.1821 50.2232 85.1821 51.9798 86.2641 53.0634C87.3464 54.1469 89.1012 54.1469 90.1834 53.0634L105.86 37.3685L121.536 53.0634C122.619 54.1469 124.373 54.1469 125.456 53.0634C126.538 51.9798 126.538 50.2232 125.456 49.1397L107.819 31.4826ZM108.631 85.2356V33.4446H103.089V85.2356H108.631Z" fill="black"/>
<path d="M86.4612 148.124C91.0527 148.124 94.7749 144.398 94.7749 139.801C94.7749 135.204 91.0527 131.477 86.4612 131.477C81.8696 131.477 78.1475 135.204 78.1475 139.801C78.1475 144.398 81.8696 148.124 86.4612 148.124Z" stroke="black" stroke-width="3.00518"/>
<path d="M127.106 148.124C131.698 148.124 135.42 144.398 135.42 139.801C135.42 135.204 131.698 131.477 127.106 131.477C122.515 131.477 118.792 135.204 118.792 139.801C118.792 144.398 122.515 148.124 127.106 148.124Z" stroke="black" stroke-width="3.00518"/>
</svg>
